<svg width="100" height="36" viewBox="0 0 100 36" fill="none" xmlns="http://www.w3.org/2000/svg">
<path fill-rule="evenodd" clip-rule="evenodd" d="M6.79419 0L5.09458 4.6624H28.6473L30.347 0H6.79419ZM4.24425 6.99255L2.54464 11.6539H26.0974L27.797 6.99255H4.24425ZM1.69961 13.9851L0 18.6464H23.5528L25.2513 13.9851H1.69961Z" fill="#009FDF"/>
<mask id="mask0" style="mask-type:alpha" maskUnits="userSpaceOnUse" x="35" y="7" width="65" height="29">
<path d="M35.3367 35.6423H99.8096V7.08215H35.3367V35.6423Z" fill="white"/>
</mask>
<g mask="url(#mask0)">
<path fill-rule="evenodd" clip-rule="evenodd" d="M50.0717 20.4231V20.5215C51.1481 20.9172 52.1762 21.609 52.715 22.0533C54.3793 23.437 55.114 25.2651 55.114 27.6368C55.114 31.5415 53.0577 34.3576 49.6797 35.2473C48.6515 35.5435 47.5752 35.6429 45.567 35.6429H35.3367V7.08215H44.3932C46.2535 7.08215 47.5259 7.18053 48.6515 7.47673C51.9321 8.36642 54.0859 10.6398 54.0859 14.2461C54.0859 16.1736 53.4004 17.8049 52.2748 18.8913C51.7853 19.3853 51.0999 19.9788 50.0717 20.4231ZM41.0152 23.437V30.948H44.9319C46.1057 30.948 47.1832 30.8497 47.9672 30.1081C48.7501 29.3665 49.0928 28.4282 49.0928 27.1925C49.0928 26.2542 48.8475 25.3645 48.3581 24.7224C47.5259 23.6846 46.4977 23.437 44.7359 23.437H41.0152ZM40.9659 18.4957H44.1479C45.1268 18.4957 45.6163 18.4957 46.1057 18.3476C47.4284 17.9519 48.2606 16.7671 48.2606 15.1358C48.2606 13.2094 47.3792 12.3684 46.1057 11.9738C45.567 11.8257 45.0294 11.776 43.9519 11.776H40.9659V18.4957ZM63.6318 35.6429V11.8744H55.4568V7.08215H78.1719L76.5568 11.8744H69.3103V35.6429H63.6318ZM79.9337 35.6429V7.08215H98.3413L96.7262 11.8744H85.5641V18.1995H90.117C93.7884 18.1995 95.698 19.0891 97.0197 20.2253C98.0478 21.115 99.8096 23.0911 99.8096 26.9958C99.8096 30.8497 97.9986 32.9739 96.4809 34.0614C94.7191 35.2959 92.8588 35.6429 89.0888 35.6429H79.9337ZM85.5641 30.8497H89.8235C91.4386 30.8497 92.4175 30.454 93.103 29.5643C93.4457 29.12 93.9351 28.3287 93.9351 26.8466C93.9351 25.3645 93.4457 24.3267 92.4668 23.5851C91.8799 23.1408 91.0959 22.8944 89.7742 22.8944H85.5641V30.8497Z" fill="white"/>
</g>
</svg>
