<svg width="16" height="16" viewBox="0 0 16 16" fill="none" xmlns="http://www.w3.org/2000/svg">
<path fill-rule="evenodd" clip-rule="evenodd" d="M0.5 8C0.5 3.85786 3.85786 0.5 8 0.5C12.1421 0.5 15.5 3.85786 15.5 8C15.5 12.1421 12.1421 15.5 8 15.5C3.85786 15.5 0.5 12.1421 0.5 8ZM6.99162 10.7416C7.22496 10.9749 7.60829 10.9666 7.83329 10.7249L11.5166 6.7249C11.7166 6.4999 11.7 6.15824 11.4833 5.95824C11.2666 5.75824 10.9166 5.76657 10.7166 5.99157L7.39162 9.60824L5.39162 7.60824C5.18329 7.3999 4.83329 7.3999 4.62496 7.60824C4.41662 7.81657 4.41662 8.16657 4.62496 8.3749L6.99162 10.7416Z" fill="#1BA049"/>
</svg>
