<svg width="12" height="12" viewBox="0 0 12 12" fill="none" xmlns="http://www.w3.org/2000/svg">
<path d="M1.34119 0.575154C1.12965 0.36362 0.786688 0.36362 0.575154 0.575154C0.36362 0.786688 0.36362 1.12965 0.575154 1.34119L5.234 6.00003L0.658874 10.5752C0.447339 10.7867 0.44734 11.1297 0.658874 11.3412C0.870408 11.5527 1.21337 11.5527 1.42491 11.3412L6.00003 6.76606L10.5752 11.3412C10.7867 11.5527 11.1297 11.5527 11.3412 11.3412C11.5527 11.1297 11.5527 10.7867 11.3412 10.5752L6.76606 6.00003L11.4249 1.34119C11.6364 1.12965 11.6364 0.786688 11.4249 0.575154C11.2134 0.36362 10.8704 0.36362 10.6589 0.575154L6.00003 5.234L1.34119 0.575154Z" fill="#7B7E86"/>
</svg>
